<mxfile host="app.diagrams.net" modified="2021-05-21T16:54:38.379Z" agent="5.0 (Macintosh)" etag="fufHUvkGdTyCxp60CLfY" version="14.6.13" type="github">
  <diagram id="ce_VXdO699eAbxWxE_60" name="Page-1">
    <mxGraphModel dx="779" dy="1230" grid="1" gridSize="10" guides="1" tooltips="1" connect="1" arrows="1" fold="1" page="1" pageScale="1" pageWidth="827" pageHeight="1169" math="0" shadow="0">
      <root>
        <mxCell id="0" />
        <mxCell id="1" parent="0" />
        <mxCell id="x1trPkRXIh92SZwVy1hj-18" value="" style="group" parent="1" vertex="1" connectable="0">
          <mxGeometry x="300" y="440" width="240" height="170" as="geometry" />
        </mxCell>
        <mxCell id="x1trPkRXIh92SZwVy1hj-35" value="" style="group;fillColor=#dae8fc;strokeColor=#6c8ebf;" parent="x1trPkRXIh92SZwVy1hj-18" vertex="1" connectable="0">
          <mxGeometry x="20" y="20" width="200" height="130" as="geometry" />
        </mxCell>
        <mxCell id="x1trPkRXIh92SZwVy1hj-15" value="&lt;b&gt;class Ball &amp;gt;&amp;gt;&amp;gt; &lt;u&gt;StatefulWidget&lt;/u&gt;&lt;/b&gt;" style="rounded=0;whiteSpace=wrap;html=1;align=left;verticalAlign=top;fillColor=#d5e8d4;strokeColor=#82b366;" parent="x1trPkRXIh92SZwVy1hj-35" vertex="1">
          <mxGeometry width="200" height="130" as="geometry" />
        </mxCell>
        <mxCell id="x1trPkRXIh92SZwVy1hj-16" value="&lt;div align=&quot;center&quot;&gt;_BallState =&amp;gt;&lt;br&gt;&lt;/div&gt;&lt;div align=&quot;center&quot;&gt;_BallState&lt;br&gt;&lt;/div&gt;" style="rounded=1;whiteSpace=wrap;html=1;align=center;fillColor=#dae8fc;strokeColor=#6c8ebf;" parent="x1trPkRXIh92SZwVy1hj-35" vertex="1">
          <mxGeometry x="20" y="40" width="120" height="60" as="geometry" />
        </mxCell>
        <mxCell id="x1trPkRXIh92SZwVy1hj-32" value="" style="group;strokeColor=#6c8ebf;fillColor=#DAE8FC;" parent="1" vertex="1" connectable="0">
          <mxGeometry x="320" y="680" width="420" height="350" as="geometry" />
        </mxCell>
        <mxCell id="x1trPkRXIh92SZwVy1hj-20" value="&lt;b&gt;class _BallState &amp;gt;&amp;gt;&amp;gt; return&lt;/b&gt;" style="rounded=0;whiteSpace=wrap;html=1;align=left;verticalAlign=top;fillColor=#dae8fc;strokeColor=#6c8ebf;" parent="x1trPkRXIh92SZwVy1hj-32" vertex="1">
          <mxGeometry width="420" height="350" as="geometry" />
        </mxCell>
        <mxCell id="x1trPkRXIh92SZwVy1hj-21" value="&lt;div&gt;&lt;b&gt;Container&lt;/b&gt;&lt;/div&gt;&lt;div&gt;&lt;br&gt;&lt;/div&gt;&amp;nbsp;- child/&lt;b&gt;Center&lt;/b&gt;" style="rounded=1;whiteSpace=wrap;html=1;align=left;verticalAlign=top;" parent="x1trPkRXIh92SZwVy1hj-32" vertex="1">
          <mxGeometry x="20" y="40" width="120" height="60" as="geometry" />
        </mxCell>
        <mxCell id="x1trPkRXIh92SZwVy1hj-22" value="&lt;div align=&quot;left&quot;&gt;&lt;b&gt;Center&lt;/b&gt;&lt;/div&gt;&lt;div&gt;&lt;br&gt;&lt;/div&gt;&lt;div&gt;- child/&lt;b&gt;Padding&lt;/b&gt;&lt;br&gt;&lt;/div&gt;" style="rounded=1;whiteSpace=wrap;html=1;align=left;verticalAlign=top;" parent="x1trPkRXIh92SZwVy1hj-32" vertex="1">
          <mxGeometry x="100" y="110" width="120" height="60" as="geometry" />
        </mxCell>
        <mxCell id="x1trPkRXIh92SZwVy1hj-25" style="edgeStyle=orthogonalEdgeStyle;rounded=0;orthogonalLoop=1;jettySize=auto;html=1;entryX=0;entryY=0.5;entryDx=0;entryDy=0;" parent="x1trPkRXIh92SZwVy1hj-32" source="x1trPkRXIh92SZwVy1hj-21" target="x1trPkRXIh92SZwVy1hj-22" edge="1">
          <mxGeometry relative="1" as="geometry" />
        </mxCell>
        <mxCell id="x1trPkRXIh92SZwVy1hj-23" value="&lt;div&gt;&lt;b&gt;Padding&lt;/b&gt;&lt;/div&gt;&lt;div&gt;&lt;br&gt;&lt;/div&gt;&lt;div&gt;- padding&lt;/div&gt;&lt;div&gt;- child/&lt;b&gt;TextButton&lt;/b&gt;&lt;br&gt;&lt;/div&gt;" style="rounded=1;whiteSpace=wrap;html=1;align=left;verticalAlign=top;" parent="x1trPkRXIh92SZwVy1hj-32" vertex="1">
          <mxGeometry x="180" y="180" width="120" height="70" as="geometry" />
        </mxCell>
        <mxCell id="x1trPkRXIh92SZwVy1hj-26" style="edgeStyle=orthogonalEdgeStyle;rounded=0;orthogonalLoop=1;jettySize=auto;html=1;entryX=0;entryY=0.5;entryDx=0;entryDy=0;" parent="x1trPkRXIh92SZwVy1hj-32" source="x1trPkRXIh92SZwVy1hj-22" target="x1trPkRXIh92SZwVy1hj-23" edge="1">
          <mxGeometry relative="1" as="geometry" />
        </mxCell>
        <mxCell id="x1trPkRXIh92SZwVy1hj-24" value="&lt;div&gt;&lt;b&gt;TextButton&lt;/b&gt;&lt;/div&gt;&lt;div&gt;&lt;br&gt;&lt;/div&gt;&lt;div&gt;- onPressed&lt;br&gt;&lt;/div&gt;&lt;div&gt;- child/Image.asset&lt;br&gt;&lt;/div&gt;" style="rounded=1;whiteSpace=wrap;html=1;align=left;verticalAlign=top;" parent="x1trPkRXIh92SZwVy1hj-32" vertex="1">
          <mxGeometry x="260" y="260" width="120" height="70" as="geometry" />
        </mxCell>
        <mxCell id="x1trPkRXIh92SZwVy1hj-28" style="edgeStyle=orthogonalEdgeStyle;rounded=0;orthogonalLoop=1;jettySize=auto;html=1;entryX=0;entryY=0.5;entryDx=0;entryDy=0;" parent="x1trPkRXIh92SZwVy1hj-32" source="x1trPkRXIh92SZwVy1hj-23" target="x1trPkRXIh92SZwVy1hj-24" edge="1">
          <mxGeometry relative="1" as="geometry" />
        </mxCell>
        <mxCell id="x1trPkRXIh92SZwVy1hj-33" value="" style="group" parent="1" vertex="1" connectable="0">
          <mxGeometry x="40" y="40" width="240" height="190" as="geometry" />
        </mxCell>
        <mxCell id="x1trPkRXIh92SZwVy1hj-11" value="&lt;b&gt;void main() =&amp;gt; runApp&lt;/b&gt;" style="rounded=0;whiteSpace=wrap;html=1;align=left;verticalAlign=top;" parent="x1trPkRXIh92SZwVy1hj-33" vertex="1">
          <mxGeometry width="240" height="190" as="geometry" />
        </mxCell>
        <mxCell id="x1trPkRXIh92SZwVy1hj-1" value="&lt;div&gt;&lt;b&gt;MaterialApp&lt;/b&gt;&lt;/div&gt;&lt;div&gt;&lt;b&gt;&lt;br&gt;&lt;/b&gt;&lt;/div&gt;&lt;div&gt;&lt;b&gt;- home&lt;br&gt;&lt;/b&gt;&lt;/div&gt;" style="rounded=1;whiteSpace=wrap;html=1;align=left;" parent="x1trPkRXIh92SZwVy1hj-33" vertex="1">
          <mxGeometry x="10" y="40" width="120" height="60" as="geometry" />
        </mxCell>
        <mxCell id="x1trPkRXIh92SZwVy1hj-2" value="&lt;div&gt;home:&lt;br&gt;&lt;/div&gt;&lt;div&gt;&lt;b&gt;BallPage&lt;/b&gt;(&amp;gt;&amp;gt;)&lt;/div&gt;" style="rounded=1;whiteSpace=wrap;html=1;align=center;fillColor=#fff2cc;strokeColor=#d6b656;" parent="x1trPkRXIh92SZwVy1hj-33" vertex="1">
          <mxGeometry x="90" y="110" width="120" height="60" as="geometry" />
        </mxCell>
        <mxCell id="x1trPkRXIh92SZwVy1hj-3" style="edgeStyle=orthogonalEdgeStyle;rounded=0;orthogonalLoop=1;jettySize=auto;html=1;entryX=0;entryY=0.5;entryDx=0;entryDy=0;" parent="x1trPkRXIh92SZwVy1hj-33" source="x1trPkRXIh92SZwVy1hj-1" target="x1trPkRXIh92SZwVy1hj-2" edge="1">
          <mxGeometry x="60" as="geometry" />
        </mxCell>
        <mxCell id="x1trPkRXIh92SZwVy1hj-34" value="" style="group;fillColor=#fff2cc;strokeColor=#d6b656;" parent="1" vertex="1" connectable="0">
          <mxGeometry x="320" y="95" width="250" height="300" as="geometry" />
        </mxCell>
        <mxCell id="x1trPkRXIh92SZwVy1hj-12" value="&lt;b&gt;class BallPage &amp;gt;&amp;gt;&amp;gt; &lt;u&gt;StatelessWidget&lt;/u&gt;&lt;/b&gt;" style="rounded=0;whiteSpace=wrap;html=1;align=left;verticalAlign=top;fillColor=#fff2cc;strokeColor=#d6b656;" parent="x1trPkRXIh92SZwVy1hj-34" vertex="1">
          <mxGeometry width="250" height="300" as="geometry" />
        </mxCell>
        <mxCell id="x1trPkRXIh92SZwVy1hj-4" value="&lt;div&gt;&lt;b&gt;Scaffold&lt;/b&gt;&lt;/div&gt;&lt;div&gt;&lt;b&gt;&lt;br&gt;&lt;/b&gt;&lt;/div&gt;&lt;div&gt;- backgroundColor&lt;/div&gt;&lt;div&gt;&lt;b&gt;- appBar &amp;gt;&amp;gt;&lt;br&gt;&lt;/b&gt;&lt;/div&gt;&lt;div&gt;&lt;b&gt;- body&lt;/b&gt;&lt;br&gt;&lt;/div&gt;" style="rounded=1;whiteSpace=wrap;html=1;align=left;" parent="x1trPkRXIh92SZwVy1hj-34" vertex="1">
          <mxGeometry x="20" y="40" width="125" height="90" as="geometry" />
        </mxCell>
        <mxCell id="x1trPkRXIh92SZwVy1hj-5" value="&lt;div&gt;&lt;b&gt;AppBar&lt;/b&gt;&lt;/div&gt;&lt;div&gt;&lt;br&gt;&lt;/div&gt;&lt;div&gt;- backgroundColor&lt;/div&gt;&lt;div&gt;- title&lt;/div&gt;" style="rounded=1;whiteSpace=wrap;html=1;align=left;" parent="x1trPkRXIh92SZwVy1hj-34" vertex="1">
          <mxGeometry x="103.99666666666667" y="150" width="125.00000000000001" height="60" as="geometry" />
        </mxCell>
        <mxCell id="x1trPkRXIh92SZwVy1hj-7" style="edgeStyle=orthogonalEdgeStyle;rounded=0;orthogonalLoop=1;jettySize=auto;html=1;entryX=0;entryY=0.5;entryDx=0;entryDy=0;" parent="x1trPkRXIh92SZwVy1hj-34" source="x1trPkRXIh92SZwVy1hj-4" target="x1trPkRXIh92SZwVy1hj-5" edge="1">
          <mxGeometry y="100" as="geometry" />
        </mxCell>
        <mxCell id="x1trPkRXIh92SZwVy1hj-6" value="&lt;div&gt;body:&lt;/div&gt;&lt;div&gt;&lt;b&gt;&lt;span&gt;Ball&lt;/span&gt;&lt;/b&gt;(&amp;gt;&amp;gt;)&lt;br&gt;&lt;/div&gt;" style="rounded=1;whiteSpace=wrap;html=1;fontStyle=0;align=center;fillColor=#d5e8d4;strokeColor=#82b366;" parent="x1trPkRXIh92SZwVy1hj-34" vertex="1">
          <mxGeometry x="103.99666666666667" y="220" width="125.00000000000001" height="60" as="geometry" />
        </mxCell>
        <mxCell id="x1trPkRXIh92SZwVy1hj-8" style="edgeStyle=orthogonalEdgeStyle;rounded=0;orthogonalLoop=1;jettySize=auto;html=1;entryX=0;entryY=0.5;entryDx=0;entryDy=0;" parent="x1trPkRXIh92SZwVy1hj-34" source="x1trPkRXIh92SZwVy1hj-4" target="x1trPkRXIh92SZwVy1hj-6" edge="1">
          <mxGeometry y="100" as="geometry" />
        </mxCell>
        <mxCell id="x1trPkRXIh92SZwVy1hj-29" style="edgeStyle=orthogonalEdgeStyle;rounded=0;orthogonalLoop=1;jettySize=auto;html=1;entryX=0;entryY=0.5;entryDx=0;entryDy=0;exitX=1;exitY=0.5;exitDx=0;exitDy=0;strokeWidth=3;fillColor=#f8cecc;strokeColor=#b85450;" parent="1" source="x1trPkRXIh92SZwVy1hj-2" target="x1trPkRXIh92SZwVy1hj-4" edge="1">
          <mxGeometry relative="1" as="geometry" />
        </mxCell>
        <mxCell id="x1trPkRXIh92SZwVy1hj-31" style="edgeStyle=orthogonalEdgeStyle;rounded=0;orthogonalLoop=1;jettySize=auto;html=1;exitX=0.5;exitY=1;exitDx=0;exitDy=0;strokeWidth=3;jumpStyle=arc;fillColor=#f8cecc;strokeColor=#b85450;" parent="1" source="x1trPkRXIh92SZwVy1hj-16" target="x1trPkRXIh92SZwVy1hj-21" edge="1">
          <mxGeometry relative="1" as="geometry" />
        </mxCell>
        <mxCell id="x1trPkRXIh92SZwVy1hj-30" style="edgeStyle=orthogonalEdgeStyle;rounded=0;orthogonalLoop=1;jettySize=auto;html=1;entryX=0.5;entryY=0;entryDx=0;entryDy=0;strokeWidth=3;exitX=0.5;exitY=1;exitDx=0;exitDy=0;fillColor=#f8cecc;strokeColor=#b85450;" parent="1" source="x1trPkRXIh92SZwVy1hj-6" target="x1trPkRXIh92SZwVy1hj-16" edge="1">
          <mxGeometry relative="1" as="geometry">
            <mxPoint x="660" y="270" as="targetPoint" />
          </mxGeometry>
        </mxCell>
      </root>
    </mxGraphModel>
  </diagram>
</mxfile>
